<?xml version="1.0" encoding="utf-8"?>
<!-- Generator: Adobe Illustrator 16.0.0, SVG Export Plug-In . SVG Version: 6.00 Build 0)  -->
<!DOCTYPE svg PUBLIC "-//W3C//DTD SVG 1.1//EN" "http://www.w3.org/Graphics/SVG/1.1/DTD/svg11.dtd">
<svg version="1.1" xmlns="http://www.w3.org/2000/svg" xmlns:xlink="http://www.w3.org/1999/xlink" x="0px" y="0px" width="512px"
	 height="512px" viewBox="0 0 512 512" enable-background="new 0 0 512 512" xml:space="preserve">
<g id="guides">
</g>
<g id="add_picture">
	<g>
		<path fill-rule="evenodd" clip-rule="evenodd" fill="#DD4814" d="M484,450.098C484,468.27,469.27,483,451.098,483H59.902
			C41.731,483,27,468.27,27,450.098V58.902C27,40.731,41.731,26,59.902,26h391.195C469.27,26,484,40.731,484,58.902V450.098z"/>
		<path fill="#FFFFFF" d="M451.799,33C465.828,33,477,44.373,477,58.402v391.195C477,463.627,465.627,475,451.598,475H60.402
			C46.373,475,35,463.627,35,449.598V58.402C35,44.373,46.373,33,60.402,33H452 M451.598,18H60.402C38.125,18,20,36.125,20,58.402
			v391.195C20,471.876,38.125,490,60.402,490h391.195C473.876,490,492,471.876,492,449.598V58.402C492,36.125,473.876,18,451.598,18
			L451.598,18z"/>
	</g>
	<g id="user_4_">
		<g>
			<path fill-rule="evenodd" clip-rule="evenodd" fill="#FFFFFF" d="M305.329,249.777c-72.686,0-132.677,54.345-141.559,124.621
				C194.412,421.129,247.249,452,307.304,452c57.878,0,109.057-28.669,140.12-72.576
				C440.832,306.73,379.735,249.777,305.329,249.777z"/>
		</g>
		<circle fill-rule="evenodd" clip-rule="evenodd" fill="#FFFFFF" cx="305.047" cy="202.59" r="76.489"/>
		
			<path id="smile_4_" fill-rule="evenodd" clip-rule="evenodd" fill="#FFFFFF" stroke="#F15A24" stroke-width="7" stroke-linecap="round" stroke-miterlimit="10" d="
			M268.172,223.693c0,0,31.399,22.122,75.647,0"/>
	</g>
	
		<circle fill-rule="evenodd" clip-rule="evenodd" fill="#FFFFFF" stroke="#FFFFFF" stroke-width="15" stroke-miterlimit="10" cx="128.5" cy="120.5" r="47.5"/>
</g>
</svg>
