<?xml version="1.0" encoding="utf-8"?>
<!-- Generator: Adobe Illustrator 16.0.0, SVG Export Plug-In . SVG Version: 6.00 Build 0)  -->
<!DOCTYPE svg PUBLIC "-//W3C//DTD SVG 1.1//EN" "http://www.w3.org/Graphics/SVG/1.1/DTD/svg11.dtd">
<svg version="1.1" xmlns="http://www.w3.org/2000/svg" xmlns:xlink="http://www.w3.org/1999/xlink" x="0px" y="0px" width="512px"
	 height="512px" viewBox="0 0 512 512" enable-background="new 0 0 512 512" xml:space="preserve">
<g id="direct_messages">
	<g>
		<g>
			<g>
				<path fill-rule="evenodd" clip-rule="evenodd" fill="#DD4814" d="M355.72,278.699c-1.108,0-2.333-0.245-3.369-0.745
					c-2.593-1.252-4.351-3.876-4.351-6.755V210H113.99c-4.142,0-7.99-3.785-7.99-7.927V141.33c0-4.142,3.848-7.33,7.99-7.33H348
					V70.754c0-2.879,1.758-5.503,4.351-6.754c1.036-0.5,2.206-0.746,3.313-0.746c1.664,0,3.343,0.553,4.696,1.629l126.111,100.228
					c1.79,1.423,2.84,3.584,2.84,5.871c0,2.287-1.04,4.449-2.831,5.872L360.385,277.07
					C359.032,278.146,357.384,278.699,355.72,278.699z"/>
				<path fill="#FFFFFF" d="M356,70.754l126.098,100.228L356,271.199V202H114v-61h242V71 M355.719,55.754
					c-2.217,0-4.305,0.49-6.378,1.491C344.156,59.747,341,64.996,341,70.754V126H113.99c-8.284,0-14.99,7.045-14.99,15.33v60.743
					c0,8.284,6.706,14.927,14.99,14.927H341v54.199c0,5.758,3.155,11.007,8.341,13.509c2.072,1.001,4.231,1.491,6.448,1.491
					c3.328,0,6.594-1.106,9.3-3.257l126.08-100.217c3.58-2.846,5.658-7.169,5.658-11.743c0-4.574-2.091-8.897-5.671-11.743
					l-126.1-100.228C362.351,56.861,359.047,55.754,355.719,55.754L355.719,55.754z"/>
			</g>
			<g>
				<path fill-rule="evenodd" clip-rule="evenodd" fill="#DD4814" d="M103,202.5c0,4.142-3.358,7.5-7.5,7.5h-64
					c-4.142,0-7.5-3.358-7.5-7.5v-61c0-4.142,3.358-7.5,7.5-7.5h64c4.142,0,7.5,3.358,7.5,7.5V202.5z"/>
				<path fill="#FFFFFF" d="M95,141v61H32v-61H95 M95.186,126H31.553C23.269,126,17,133.045,17,141.33v60.743
					C17,210.357,23.269,217,31.553,217h63.633c8.284,0,14.814-6.643,14.814-14.927V141.33C110,133.045,103.47,126,95.186,126
					L95.186,126z"/>
			</g>
		</g>
		<g>
			<g>
				<path fill-rule="evenodd" clip-rule="evenodd" fill="#DD4814" d="M157.654,454.353c-1.664,0-3.314-0.554-4.667-1.629
					L26.886,352.495c-1.791-1.423-2.833-3.585-2.833-5.871c0-2.287,1.043-4.449,2.833-5.871l126.101-100.218
					c1.353-1.075,3.003-1.628,4.667-1.628c1.108,0,2.146,0.245,3.182,0.746c2.593,1.251,4.164,3.876,4.164,6.754V308h234.382
					c4.143,0,7.618,3.391,7.618,7.533v60.743c0,4.143-3.476,7.724-7.618,7.724H165v62.853c0,2.879-1.571,5.504-4.164,6.755
					C159.8,454.107,158.763,454.353,157.654,454.353z"/>
				<path fill="#FFFFFF" d="M158,246v70h241v60H158v70.853L31.899,346.624L158,246.406 M157.655,231.406
					c-3.328,0-6.629,1.106-9.335,3.257L22.22,334.881c-3.58,2.846-5.667,7.169-5.667,11.743c0,4.573,2.086,8.896,5.667,11.742
					L148.32,458.595c2.706,2.151,6.007,3.258,9.335,3.258c2.216,0,4.618-0.49,6.69-1.491c5.186-2.502,8.654-7.751,8.654-13.509V391
					h226.382c8.284,0,14.618-6.439,14.618-14.724v-60.743c0-8.284-6.334-14.533-14.618-14.533H173v-54.594
					c0-5.757-3.469-11.007-8.654-13.509C162.273,231.897,159.872,231.406,157.655,231.406L157.655,231.406z"/>
			</g>
			<g>
				<path fill-rule="evenodd" clip-rule="evenodd" fill="#DD4814" d="M490,376.5c0,4.143-3.357,7.5-7.5,7.5h-64
					c-4.143,0-7.5-3.357-7.5-7.5v-61c0-4.143,3.357-7.5,7.5-7.5h64c4.143,0,7.5,3.357,7.5,7.5V376.5z"/>
				<path fill="#FFFFFF" d="M482,316v60h-64v-60H482 M481.818,301h-63.635c-8.284,0-15.184,6.249-15.184,14.533v60.743
					c0,8.284,6.899,14.724,15.184,14.724h63.635c8.284,0,15.182-6.439,15.182-14.724v-60.743C497,307.249,490.103,301,481.818,301
					L481.818,301z"/>
			</g>
		</g>
	</g>
</g>
<g id="guides">
</g>
</svg>
