<?xml version="1.0" encoding="utf-8"?>
<!-- Generator: Adobe Illustrator 16.0.0, SVG Export Plug-In . SVG Version: 6.00 Build 0)  -->
<!DOCTYPE svg PUBLIC "-//W3C//DTD SVG 1.1//EN" "http://www.w3.org/Graphics/SVG/1.1/DTD/svg11.dtd">
<svg version="1.1" xmlns="http://www.w3.org/2000/svg" xmlns:xlink="http://www.w3.org/1999/xlink" x="0px" y="0px" width="512px"
	 height="512px" viewBox="0 0 512 512" enable-background="new 0 0 512 512" xml:space="preserve">
<g id="guides">
</g>
<g id="follow">
	<g id="user_5_">
		<g>
			<g>
				<path fill-rule="evenodd" clip-rule="evenodd" fill="#DD4814" d="M352.588,218.309c-4.143,0-7.5-3.358-7.5-7.5v-64.556h-64.55
					c-4.143,0-7.5-3.358-7.5-7.5v-36.03c0-4.142,3.357-7.5,7.5-7.5h64.55V30.671c0-4.142,3.357-7.5,7.5-7.5h36.029
					c4.143,0,7.5,3.358,7.5,7.5v64.551h64.557c4.143,0,7.5,3.358,7.5,7.5v36.03c0,4.142-3.357,7.5-7.5,7.5h-64.557v64.556
					c0,4.142-3.357,7.5-7.5,7.5H352.588z"/>
				<path fill="#FFFFFF" d="M388.617,30.671v72.051h72.057v36.03h-72.057v72.056h-36.029v-72.056h-72.05v-36.03h72.05V30.671
					H388.617 M388.617,15.671h-36.029c-8.284,0-15,6.716-15,15v57.051h-57.05c-8.284,0-15,6.716-15,15v36.03c0,8.284,6.716,15,15,15
					h57.05v57.056c0,8.284,6.716,15,15,15h36.029c8.284,0,15-6.716,15-15v-57.056h57.057c8.284,0,15-6.716,15-15v-36.03
					c0-8.284-6.716-15-15-15h-57.057V30.671C403.617,22.387,396.901,15.671,388.617,15.671L388.617,15.671z"/>
			</g>
		</g>
		<g>
			<path fill-rule="evenodd" clip-rule="evenodd" fill="#DD4814" d="M220.19,485.5c-71.864,0-138.33-35.934-177.797-96.123
				c-0.978-1.491-1.393-3.283-1.169-5.053c7.727-61.131,46.397-113.494,101.954-139.126c-15.741-17.949-24.59-41.165-24.59-65.247
				c0-54.537,44.37-98.905,98.907-98.905c54.536,0,98.904,44.369,98.904,98.905c0,23.982-8.781,47.124-24.403,65.042
				c26.384,12.102,49.478,30.525,67.264,53.758c20.421,26.676,32.816,58.435,35.847,91.842c0.161,1.777-0.316,3.553-1.347,5.01
				C353.934,451.894,289.049,485.5,220.19,485.5z"/>
			<path fill="#FFFFFF" d="M217.495,88.545c50.48,0,91.404,40.923,91.404,91.405c0,26.828-11.558,50.956-29.967,67.677
				c59.355,22.795,102.734,77.811,108.704,143.643C350.516,443.739,289.356,478,220.19,478c-71.767,0-134.907-36.891-171.525-92.735
				c7.961-62.987,50.279-115.267,107.587-137.467c-18.521-16.728-30.164-40.925-30.164-67.847
				C126.088,129.468,167.012,88.545,217.495,88.545 M217.495,73.545c-28.422,0-55.144,11.068-75.241,31.165
				c-20.097,20.097-31.166,46.818-31.166,75.24c0,22.653,7.277,44.593,20.424,62.655c-22.896,12.056-43.148,28.852-59.328,49.332
				c-20.904,26.46-34.183,58.082-38.4,91.446c-0.448,3.539,0.381,7.122,2.337,10.106c19.639,29.949,46.566,54.921,77.873,72.214
				C146.322,483.562,183.044,493,220.19,493c35.789,0,71.321-8.794,102.757-25.432c30.416-16.098,57.02-39.485,76.935-67.635
				c2.061-2.912,3.016-6.464,2.693-10.018c-3.157-34.821-16.076-67.922-37.36-95.724c-16.589-21.669-37.609-39.323-61.556-51.833
				c13.029-18.017,20.24-39.868,20.24-62.409C323.899,121.279,276.167,73.545,217.495,73.545L217.495,73.545z"/>
		</g>
		
			<path id="smile_5_" fill-rule="evenodd" clip-rule="evenodd" fill="#DD4814" stroke="#FFFFFF" stroke-width="9" stroke-linecap="round" stroke-linejoin="round" stroke-miterlimit="10" d="
			M173.427,205.17c0,0,37.523,26.437,90.401,0"/>
	</g>
	<g>
		<g>
			<path fill-rule="evenodd" clip-rule="evenodd" fill="#DD4814" d="M352.588,215.309c-2.485,0-4.5-2.015-4.5-4.5v-67.556h-67.55
				c-2.485,0-4.5-2.015-4.5-4.5v-36.03c0-2.485,2.015-4.5,4.5-4.5h67.55V30.671c0-2.485,2.015-4.5,4.5-4.5h36.029
				c2.485,0,4.5,2.015,4.5,4.5v67.551h67.557c2.485,0,4.5,2.015,4.5,4.5v36.03c0,2.485-2.015,4.5-4.5,4.5h-67.557v67.556
				c0,2.485-2.015,4.5-4.5,4.5H352.588z"/>
			<path fill="#FFFFFF" d="M388.617,30.671v72.051h72.057v36.03h-72.057v72.056h-36.029v-72.056h-72.05v-36.03h72.05V30.671H388.617
				 M388.617,21.671h-36.029c-4.971,0-9,4.029-9,9v63.051h-63.05c-4.971,0-9,4.029-9,9v36.03c0,4.971,4.029,9,9,9h63.05v63.056
				c0,4.971,4.029,9,9,9h36.029c4.971,0,9-4.029,9-9v-63.056h63.057c4.971,0,9-4.029,9-9v-36.03c0-4.971-4.029-9-9-9h-63.057V30.671
				C397.617,25.701,393.588,21.671,388.617,21.671L388.617,21.671z"/>
		</g>
	</g>
</g>
</svg>
