<?xml version="1.0" encoding="utf-8"?>
<!-- Generator: Adobe Illustrator 16.0.0, SVG Export Plug-In . SVG Version: 6.00 Build 0)  -->
<!DOCTYPE svg PUBLIC "-//W3C//DTD SVG 1.1//EN" "http://www.w3.org/Graphics/SVG/1.1/DTD/svg11.dtd">
<svg version="1.1" xmlns="http://www.w3.org/2000/svg" xmlns:xlink="http://www.w3.org/1999/xlink" x="0px" y="0px" width="512px"
	 height="512px" viewBox="0 0 512 512" enable-background="new 0 0 512 512" xml:space="preserve">
<g id="guides">
</g>
<g id="following">
	<g>
		<g id="user_2_">
			<g>
				<path fill="#DD4814" d="M328.634,362.115c-0.477-0.017-0.966-0.042-1.457-0.082c-0.081-0.005-0.185-0.012-0.287-0.021
					c-0.579-0.051-1.164-0.126-1.751-0.212c-0.207-0.031-0.389-0.062-0.57-0.093c-0.452-0.076-0.924-0.167-1.397-0.27
					c-0.194-0.041-0.347-0.073-0.501-0.11c-0.558-0.13-1.168-0.291-1.78-0.476c-0.133-0.04-0.272-0.085-0.41-0.131
					c-0.506-0.161-0.999-0.331-1.491-0.516c-0.241-0.091-0.396-0.149-0.552-0.212c-0.552-0.219-1.112-0.455-1.674-0.717
					l-0.154-0.071c-0.609-0.289-1.215-0.604-1.879-0.975c-0.135-0.074-0.301-0.17-0.467-0.267c-0.522-0.303-1.012-0.604-1.502-0.925
					c-0.162-0.104-0.286-0.183-0.409-0.266c-0.602-0.403-1.205-0.838-1.792-1.289c-0.109-0.083-0.236-0.185-0.362-0.287
					c-0.498-0.394-0.972-0.786-1.444-1.199c-0.198-0.173-0.345-0.301-0.491-0.434c-0.652-0.588-1.2-1.109-1.718-1.635
					c-16.76-17.007-10.143-36.457-4.302-44.365l0.335-0.454l9.845-9.83c-5.563-1.889-10.694-5.2-15.341-9.91
					c-19.207-19.477-11.623-41.896-4.874-51.128l0.415-0.599l0.697-0.79l41.456-41.428l-36.747-33.408l-0.64-1.413
					c-0.5-1.104-12.054-27.21,3.902-43.388c0.459-0.464,0.947-0.921,1.5-1.405c0.143-0.124,0.274-0.234,0.407-0.343
					c0.434-0.362,0.808-0.66,1.188-0.945c0.182-0.136,0.351-0.262,0.521-0.383c0.34-0.243,0.679-0.473,1.021-0.693l-15.896-14.43
					l-1.3-0.916l-2.312-2.468l-0.512-1.135c-2.392-5.18-13.343-31.695,4.004-49.282c6.577-6.656,12.437-10.261,24.559-10.261
					c11.431,0,20.741,3.108,23.896,4.303l4.153,0.527l2.4,2.188l75.285,68.434l0.313-0.308l48.303,44.495l9.806,9.021
					l-36.548,36.574l34.592,31.868l-48.368,48.396l-0.038-0.035l-75.571,75.474l-0.604,0.481l-0.418,0.31l-0.574,0.406
					c-0.163,0.114-0.395,0.272-0.654,0.444l-0.151,0.099c-0.215,0.142-0.435,0.281-0.672,0.43l-0.269,0.166
					c-0.258,0.158-0.498,0.303-0.751,0.45l-0.314,0.185c-0.351,0.201-0.726,0.412-1.127,0.628l-0.314,0.166
					c-0.303,0.158-0.618,0.317-0.941,0.478l-0.401,0.193c-0.337,0.161-0.67,0.315-1.015,0.471l-0.511,0.226
					c-0.362,0.158-0.778,0.33-1.205,0.499l-0.287,0.115c-0.578,0.223-1.134,0.425-1.707,0.616c-0.11,0.037-0.232,0.076-0.355,0.113
					c-0.468,0.152-0.941,0.297-1.425,0.434c-0.171,0.049-0.373,0.104-0.577,0.157c-0.453,0.121-0.926,0.235-1.405,0.344l-0.543,0.12
					c-0.659,0.137-1.335,0.261-2.027,0.363c-0.706,0.103-1.407,0.178-2.117,0.237c-0.172,0.014-0.618,0.041-0.618,0.041
					c-0.503,0.032-1.013,0.053-1.53,0.061c-0.173,0.009-0.337,0.014-0.504,0.014C329.53,362.137,328.829,362.121,328.634,362.115z"
					/>
				<path fill="#FFFFFF" d="M314,40c0,0,0.49,0,0.5,0c12,0,21.605,4.182,21.992,4.353l2.729,0.46l0.646,0.646l80.539,73.237
					l0.278-0.259l3.68,3.398l39.376,36.272l4.058,3.734l-3.898,3.904l-32.647,32.667l34.592,31.868l-37.787,37.809l-0.033-0.03
					l-80.354,80.249c0,0-0.025,0.021-0.068,0.054c-0.018,0.013-0.032,0.023-0.058,0.043c-0.045,0.034-0.1,0.075-0.169,0.127
					c-0.036,0.027-0.068,0.051-0.111,0.082c-0.084,0.062-0.183,0.131-0.293,0.209c-0.042,0.03-0.075,0.054-0.122,0.086
					c-0.158,0.11-0.337,0.232-0.538,0.365c-0.045,0.03-0.096,0.062-0.144,0.094c-0.162,0.106-0.335,0.217-0.522,0.334
					c-0.081,0.051-0.164,0.102-0.25,0.154c-0.183,0.112-0.375,0.228-0.577,0.346c-0.089,0.053-0.173,0.103-0.265,0.155
					c-0.297,0.171-0.607,0.346-0.94,0.524c-0.007,0.003-0.014,0.007-0.021,0.01c-0.322,0.173-0.665,0.347-1.02,0.522
					c-0.107,0.053-0.219,0.104-0.33,0.158c-0.271,0.13-0.549,0.259-0.837,0.389c-0.127,0.057-0.253,0.113-0.383,0.169
					c-0.327,0.143-0.664,0.281-1.01,0.418c-0.089,0.035-0.174,0.071-0.264,0.106c-0.438,0.169-0.891,0.333-1.356,0.489
					c-0.099,0.033-0.201,0.062-0.301,0.095c-0.371,0.121-0.75,0.236-1.137,0.346c-0.149,0.043-0.3,0.083-0.451,0.123
					c-0.371,0.099-0.749,0.19-1.132,0.276c-0.141,0.031-0.278,0.064-0.42,0.094c-0.526,0.109-1.061,0.208-1.607,0.289h-0.001
					c-0.535,0.078-1.082,0.136-1.636,0.182c-0.154,0.013-0.311,0.021-0.467,0.03c-0.417,0.026-0.837,0.043-1.263,0.048
					c-0.103,0.001-0.201,0.012-0.304,0.012c-0.119,0-0.239-0.006-0.358-0.008c-0.143-0.002-0.284-0.005-0.428-0.01
					c-0.386-0.013-0.775-0.033-1.167-0.066c-0.056-0.004-0.11-0.006-0.165-0.011c-0.438-0.039-0.88-0.097-1.323-0.162
					c-0.136-0.021-0.272-0.044-0.409-0.067c-0.35-0.059-0.701-0.126-1.055-0.203c-0.118-0.025-0.235-0.048-0.354-0.076
					c-0.454-0.105-0.91-0.227-1.368-0.364c-0.104-0.031-0.209-0.068-0.312-0.102c-0.372-0.118-0.745-0.247-1.118-0.387
					c-0.135-0.051-0.27-0.101-0.404-0.154c-0.455-0.181-0.912-0.373-1.369-0.589c-0.016-0.008-0.031-0.014-0.046-0.021
					c-0.471-0.224-0.942-0.473-1.413-0.735c-0.131-0.072-0.261-0.148-0.392-0.225c-0.379-0.22-0.757-0.453-1.136-0.7
					c-0.107-0.069-0.215-0.136-0.322-0.208c-0.47-0.315-0.938-0.652-1.406-1.012c-0.104-0.079-0.207-0.165-0.31-0.247
					c-0.379-0.299-0.757-0.612-1.134-0.941c-0.131-0.114-0.263-0.229-0.395-0.348c-0.47-0.424-0.938-0.862-1.405-1.336
					c-16.689-16.936-3.61-34.646-3.61-34.646l20.853-20.821c-1.641,0.279-3.354,0.457-5.138,0.457
					c-8.057,0-15.318-3.215-21.569-9.552c-15.716-15.937-9.559-34.118-4.108-41.505l0.223-0.321l0.251-0.284l46.856-46.825
					l-41.422-37.658c0,0-10.112-22.332,2.41-35.028c0.357-0.361,0.725-0.699,1.098-1.025c0.113-0.099,0.229-0.191,0.343-0.287
					c0.271-0.226,0.544-0.444,0.821-0.652c0.126-0.094,0.252-0.188,0.379-0.279c0.304-0.217,0.611-0.422,0.922-0.619
					c0.092-0.058,0.182-0.121,0.273-0.177c0.406-0.249,0.818-0.482,1.235-0.699c0.079-0.041,0.159-0.077,0.239-0.117
					c0.342-0.173,0.687-0.336,1.035-0.489c0.128-0.056,0.256-0.109,0.384-0.163c0.318-0.132,0.639-0.257,0.961-0.375
					c0.12-0.044,0.24-0.089,0.361-0.131c0.425-0.147,0.854-0.285,1.284-0.407c0.008-0.002,0.017-0.005,0.024-0.007
					c0.449-0.126,0.901-0.238,1.354-0.339c0.113-0.025,0.227-0.047,0.34-0.071c0.341-0.071,0.682-0.137,1.023-0.194
					c0.134-0.023,0.268-0.045,0.401-0.066c0.352-0.054,0.703-0.102,1.055-0.144l-25.436-23.09l-1.05-0.739l-0.935-0.998
					c-0.471-1.044-12.403-26.043,2.507-41.159C300.513,42.931,304.491,40,314.47,40 M314.5,25h-0.029
					c-14.617,0-22.273,5.005-29.89,12.713c-16.134,16.357-13.42,40.621-5.503,57.771l1.024,2.329l1.695,1.829l0.935,1.012
					l1.053,1.13l1.259,0.89l0.291,0.206l9.316,8.459c-7.556,8.513-10.587,20.016-8.788,33.415
					c1.221,9.091,4.341,16.167,4.693,16.944l1.279,2.825l2.294,2.086l29.778,27.072l-35.725,35.701l-0.331,0.331l-0.31,0.351
					l-0.251,0.284l-0.584,0.66l-0.502,0.725l-0.115,0.166c-2.572,3.543-8.206,12.735-8.652,25.731
					c-0.311,9.038,1.919,22.448,14.302,35.005c2.527,2.562,5.218,4.786,8.047,6.662l-2.11,2.107l-0.798,0.796l-0.67,0.907
					c-0.892,1.208-5.43,7.716-7.147,17.214c-2.42,13.378,1.892,26.473,12.141,36.871c0.623,0.633,1.271,1.25,2.04,1.943
					c0.17,0.154,0.348,0.311,0.525,0.466l0.053,0.046c0.538,0.469,1.091,0.93,1.646,1.368c0.201,0.163,0.378,0.303,0.553,0.438
					c0.685,0.525,1.419,1.054,2.153,1.547c0.173,0.116,0.349,0.23,0.526,0.343c0.565,0.369,1.172,0.742,1.769,1.088
					c0.22,0.129,0.417,0.242,0.611,0.351c0.807,0.449,1.553,0.837,2.283,1.184l0.051,0.024l0.05,0.023l0.222,0.103l0.021,0.01
					c0.614,0.283,1.263,0.56,1.973,0.842c0.186,0.074,0.388,0.15,0.59,0.227l0.062,0.023c0.607,0.228,1.198,0.433,1.783,0.62
					c0.222,0.073,0.426,0.139,0.629,0.199c0.73,0.22,1.489,0.422,2.242,0.598c0.209,0.05,0.417,0.095,0.625,0.138
					c0.546,0.119,1.142,0.234,1.735,0.334c0.188,0.032,0.418,0.07,0.645,0.104l0.028,0.004l0.028,0.005
					c0.806,0.118,1.497,0.202,2.178,0.263c0.14,0.013,0.285,0.023,0.432,0.033c0.561,0.044,1.132,0.075,1.741,0.096
					c0.201,0.007,0.415,0.012,0.633,0.015c0.23,0.007,0.439,0.011,0.646,0.011c0.253,0,0.502-0.006,0.751-0.017
					c0.59-0.012,1.177-0.036,1.763-0.073l0.067-0.004c0.229-0.014,0.457-0.028,0.683-0.047c0.933-0.077,1.771-0.171,2.573-0.288
					c0.823-0.122,1.63-0.267,2.492-0.445c0.178-0.037,0.371-0.08,0.565-0.125l0.059-0.013c0.61-0.137,1.182-0.277,1.729-0.422
					c0.228-0.061,0.466-0.125,0.704-0.192c0.535-0.152,1.071-0.314,1.593-0.483c0.185-0.058,0.354-0.111,0.52-0.167
					c0.646-0.217,1.312-0.456,1.97-0.71l0.036-0.015l0.036-0.014c0.12-0.047,0.236-0.094,0.353-0.142l-0.036,0.015
					c0.496-0.196,0.979-0.396,1.449-0.601c0.163-0.069,0.322-0.141,0.481-0.212l0.051-0.022l0.029-0.013l0.03-0.014
					c0.399-0.181,0.785-0.359,1.16-0.539l0.085-0.041c0.124-0.059,0.246-0.117,0.366-0.177l0.026-0.013l0.026-0.013
					c0.271-0.135,0.538-0.27,0.799-0.403l0.081-0.034l0.589-0.316c0.471-0.252,0.911-0.499,1.331-0.741
					c0.138-0.079,0.269-0.156,0.406-0.238c0.283-0.165,0.553-0.327,0.81-0.485l0.362-0.224c0.267-0.167,0.533-0.338,0.784-0.502
					c0.059-0.038,0.133-0.087,0.208-0.137c0.286-0.189,0.544-0.365,0.774-0.525c0.111-0.077,0.2-0.139,0.298-0.209l0.008-0.006
					c0.144-0.102,0.274-0.195,0.392-0.28l0,0c0.141-0.103,0.246-0.18,0.363-0.27l0.048-0.035l0.101-0.073l0.181-0.14
					c0.211-0.162,0.334-0.264,0.334-0.264l0.572-0.469l0.593-0.579l70.224-70.132l0.01,0.009l10.163-10.105l37.787-37.809
					l11.044-11.05l-11.49-10.585l-23.102-21.282l21.604-21.616l3.901-3.906l11.046-11.058l-11.503-10.582l-4.058-3.733
					l-39.369-36.262l-3.677-3.388l-10.496-9.673l-0.349,0.342l-70.048-63.673l-0.632-0.576l-3.508-3.197l-4.708-0.598l-0.94-0.347
					C335.884,28.152,326.229,25,314.5,25L314.5,25z"/>
			</g>
			<g>
				<path fill-rule="evenodd" clip-rule="evenodd" fill="#DD4814" d="M187.764,476.5c-62.331,0-119.979-31.166-154.21-83.37
					l-1.516-2.311l0.347-2.742c6.651-52.622,39.714-97.764,87.285-120.224c-13.18-15.52-20.568-35.356-20.568-55.917
					c0-47.606,38.73-86.336,86.336-86.336s86.336,38.73,86.336,86.336c0,20.473-7.331,40.244-20.41,55.736
					c22.393,10.512,41.999,26.292,57.163,46.101c17.732,23.162,28.495,50.738,31.125,79.746l0.249,2.752l-1.596,2.257
					C303.765,447.352,247.487,476.5,187.764,476.5z"/>
				<path fill="#FFFFFF" d="M185.438,133.101c43.54,0,78.836,35.296,78.836,78.836c0,23.139-9.97,43.949-25.847,58.371
					c51.194,19.658,88.608,67.111,93.755,123.889C300.166,439.452,247.417,469,187.764,469c-61.898,0-116.356-31.818-147.938-79.982
					c6.867-54.326,43.366-99.416,92.792-118.563c-15.973-14.427-26.016-35.298-26.016-58.518
					C106.602,168.396,141.898,133.101,185.438,133.101 M185.438,118.101c-51.742,0-93.836,42.095-93.836,93.836
					c0,19.177,5.915,37.776,16.644,53.325c-19.152,10.442-36.11,24.713-49.754,41.983c-18.263,23.116-29.863,50.742-33.548,79.892
					l-0.693,5.483l3.031,4.623C62.903,451.567,122.896,484,187.764,484c31.202,0,62.182-7.667,89.59-22.173
					c26.519-14.035,49.712-34.426,67.074-58.968l3.192-4.513l-0.499-5.505c-2.758-30.421-14.044-59.339-32.639-83.628
					c-14.009-18.3-31.639-33.322-51.696-44.175c10.631-15.506,16.488-34.023,16.488-53.103
					C279.274,160.195,237.18,118.101,185.438,118.101L185.438,118.101z"/>
			</g>
			
				<path id="smile_2_" fill-rule="evenodd" clip-rule="evenodd" fill="#DD4814" stroke="#FFFFFF" stroke-width="3" stroke-miterlimit="10" d="
				M147.431,233.688c0,0,32.363,22.802,77.968,0"/>
		</g>
		<g>
			<g>
				<path fill-rule="evenodd" clip-rule="evenodd" fill="#DD4814" stroke="#FFFFFF" stroke-width="3" stroke-miterlimit="10" d="
					M465.844,230.28l-39.38-36.279l-0.254,0.259l-84.216-76.558c0,0-22.828-9.916-35.363,2.781
					c-12.522,12.696-2.41,35.028-2.41,35.028l84.165,76.517l-80.11,79.992c0,0-13.079,17.71,3.61,34.646
					c16.693,16.924,35.784,1.643,35.784,1.643l80.354-80.249"/>
				<path fill="#DD4814" stroke="#FFFFFF" stroke-width="3" stroke-miterlimit="10" d="M324.045,114.016
					c9.465,0,17.949,3.686,17.949,3.686l84.216,76.558l0.254-0.259l39.38,36.279l-37.787,37.809l-0.033-0.03l-80.354,80.249
					c0,0-7.906,6.329-17.995,6.329c-5.587,0-11.839-1.939-17.789-7.972c-16.689-16.936-3.61-34.646-3.61-34.646l80.11-79.992
					l-84.165-76.517c0,0-10.112-22.332,2.41-35.028C311.525,115.525,317.983,114.016,324.045,114.016"/>
			</g>
			<g>
				<g>
					<path fill-rule="evenodd" clip-rule="evenodd" fill="#DD4814" d="M323.994,287.863c-7.005,0-13.352-2.834-18.864-8.423
						c-9.072-9.202-9.615-18.669-8.473-24.99c1.231-6.811,4.58-11.407,4.722-11.599l0.067-0.091l79.073-78.959l-83.227-75.667
						l-0.128-0.283c-0.107-0.236-2.631-5.868-3.611-13.172c-1.323-9.858,0.862-17.994,6.322-23.528
						c4.526-4.582,10.74-6.905,18.471-6.905c9.668,0,18.199,3.656,18.558,3.812l0.228,0.099l83.357,75.772l0.265-0.254
						l41.563,38.284l-39.881,39.906l-0.036-0.032l-79.419,79.329l-0.065,0.052C342.577,281.485,334.482,287.863,323.994,287.863z"/>
					<path fill="#FFFFFF" d="M318.347,45.747c9.468,0,17.96,3.688,17.96,3.688l84.212,76.549l0.258-0.248l39.376,36.269
						l-37.784,37.808l-0.035-0.031l-80.354,80.261c0,0-7.903,6.321-17.985,6.321c-5.588,0-11.845-1.941-17.796-7.977
						c-16.689-16.926-3.612-34.645-3.612-34.645l80.107-79.991l-84.162-76.518c0,0-10.113-22.332,2.412-35.028
						C305.833,47.255,312.289,45.746,318.347,45.747 M318,42.747v3V42.747c-8,0-14.546,2.473-19.364,7.35
						c-13.815,14.004-3.372,37.385-2.924,38.374l0.3,0.565l0.479,0.417l81.844,74.399l-77.875,77.767l-0.156,0.16l-0.133,0.182
						c-0.15,0.204-3.698,5.073-4.99,12.223c-1.206,6.671-0.644,16.65,8.882,26.31c5.804,5.886,12.51,8.87,19.932,8.87
						c11.008,0,19.503-6.693,19.859-6.979l0.129-0.104l0.117-0.117l78.368-78.278l0.002,0.002l2.021-1.956l37.784-37.808l2.209-2.21
						l-2.299-2.117l-39.376-36.269l-2.077-1.914l-0.271,0.261l-82.136-74.662l-0.367-0.334l-0.63-0.198
						C336.957,46.521,328,42.747,318,42.747L318,42.747z"/>
				</g>
				<path fill="#DD4814" stroke="#FFFFFF" stroke-width="3" stroke-miterlimit="10" d="M314.5,40.455
					c-10-0.005-13.982,2.698-19.248,8.028c-14.91,15.116-2.978,39.888-2.507,40.932l0.935,0.998l1.05,0.739l80.171,72.78
					l-76.114,76.062l-0.251,0.284l-0.223,0.321c-5.45,7.387-11.607,25.568,4.108,41.505c6.251,6.337,13.513,9.552,21.569,9.552
					c11.808,0,20.915-7.174,21.293-7.479l0.233-0.185l0.203-0.207l76.759-76.667l0.004,0.004l3.63-3.567l37.787-37.808l3.898-3.903
					l-4.058-3.733l-39.376-36.268l-3.68-3.391l-0.278,0.273l-80.539-73.209l-0.646-0.589l-2.729-0.346
					C336.105,44.41,326.5,40.455,314.5,40.455L314.5,40.455"/>
			</g>
		</g>
	</g>
</g>
</svg>
