<?xml version="1.0" encoding="utf-8"?>
<!-- Generator: Adobe Illustrator 16.0.0, SVG Export Plug-In . SVG Version: 6.00 Build 0)  -->
<!DOCTYPE svg PUBLIC "-//W3C//DTD SVG 1.1//EN" "http://www.w3.org/Graphics/SVG/1.1/DTD/svg11.dtd">
<svg version="1.1" id="mentions" xmlns="http://www.w3.org/2000/svg" xmlns:xlink="http://www.w3.org/1999/xlink" x="0px" y="0px"
	 width="512px" height="512px" viewBox="0 0 512 512" enable-background="new 0 0 512 512" xml:space="preserve">
<g>
	<g>
		<path fill="#DD4814" d="M76.8,483.035c-2.062,0-4.1-0.848-5.566-2.47c-2.449-2.709-2.591-6.788-0.337-9.661l0,0
			c0.163-0.207,16.34-21.062,24.666-48.979c10.766-36.101,3.908-66.757-20.381-91.119c-3.281-2.97-6.451-5.8-9.503-8.525
			c-32.344-28.882-53.712-47.962-53.712-96.722c0-53.896,25.555-104.474,71.958-142.415
			c45.963-37.581,106.982-58.278,171.817-58.278c64.838,0,125.859,20.697,171.823,58.278c46.405,37.94,71.961,88.518,71.961,142.415
			c0,53.177-25.12,97.468-72.646,128.084c-42.993,27.697-103.771,42.951-171.138,42.951c-33.391,0-137.591,61.554-174.923,85.271
			C79.58,482.653,78.185,483.035,76.8,483.035z"/>
		<path fill="#FFFFFF" d="M255.742,32.367c130.491,0,236.284,86.493,236.284,193.192c0,106.699-105.793,163.536-236.284,163.536
			c-42.896,0-178.945,86.44-178.945,86.44s67.684-86.064,3.558-150.162c-37.842-34.259-60.889-50.01-60.889-99.814
			C19.466,118.86,125.257,32.367,255.742,32.367 M255.742,17.367c-33.568,0-66.16,5.385-96.869,16.005
			c-29.811,10.31-56.624,25.102-79.696,43.966c-23.293,19.045-41.619,41.294-54.465,66.128
			c-13.434,25.969-20.246,53.589-20.246,82.092c0,52.118,23.58,73.174,56.216,102.316c3.008,2.687,6.116,5.461,9.322,8.361
			c22.175,22.332,28.317,50.565,18.257,83.923c-7.994,26.509-23.104,45.91-23.255,46.104c-4.519,5.745-4.238,13.911,0.665,19.333
			c2.933,3.243,7.009,4.939,11.132,4.939c2.769,0,5.558-0.765,8.037-2.339c0.337-0.214,34.171-21.669,72.69-42.803
			c67.936-37.274,91.314-41.299,98.212-41.299c33.958,0,66.113-3.696,95.574-10.987c30.335-7.507,57.125-18.663,79.626-33.158
			c23.912-15.405,42.566-34.32,55.445-56.221c13.694-23.288,20.639-49.588,20.639-78.169c0-28.503-6.812-56.123-20.246-82.092
			c-12.848-24.834-31.173-47.083-54.467-66.129c-23.072-18.864-49.887-33.656-79.698-43.966
			C321.904,22.752,289.312,17.367,255.742,17.367L255.742,17.367z"/>
	</g>
	<circle fill-rule="evenodd" clip-rule="evenodd" fill="#FFFFFF" cx="254.145" cy="153.977" r="62.876"/>
	
		<path fill-rule="evenodd" clip-rule="evenodd" fill="#FFFFFF" stroke="#F15A24" stroke-width="7" stroke-linecap="round" stroke-miterlimit="10" d="
		M223.833,171.325c0,0,25.811,18.186,62.184,0"/>
	<g>
		<path fill-rule="evenodd" clip-rule="evenodd" fill="#FFFFFF" d="M254.376,192.767c-59.75,0-109.064,44.673-116.366,102.442
			C163.199,333.623,206.633,359,256,359c47.577,0,89.647-23.566,115.183-59.66C365.765,239.584,315.541,192.767,254.376,192.767z"/>
	</g>
</g>
</svg>
