<?xml version="1.0" encoding="utf-8"?>
<!-- Generator: Adobe Illustrator 16.0.0, SVG Export Plug-In . SVG Version: 6.00 Build 0)  -->
<!DOCTYPE svg PUBLIC "-//W3C//DTD SVG 1.1//EN" "http://www.w3.org/Graphics/SVG/1.1/DTD/svg11.dtd">
<svg version="1.1" xmlns="http://www.w3.org/2000/svg" xmlns:xlink="http://www.w3.org/1999/xlink" x="0px" y="0px" width="512px"
	 height="512px" viewBox="0 0 512 512" enable-background="new 0 0 512 512" xml:space="preserve">
<g id="my_account">
	<g>
		<path fill-rule="evenodd" clip-rule="evenodd" fill="#DD4814" d="M484,450.098C484,468.27,469.27,483,451.098,483H59.902
			C41.731,483,27,468.27,27,450.098V58.902C27,40.731,41.731,26,59.902,26h391.195C469.27,26,484,40.731,484,58.902V450.098z"/>
		<path fill="#FFFFFF" d="M451.799,33C465.828,33,477,44.373,477,58.402v391.195C477,463.627,465.627,475,451.598,475H60.402
			C46.373,475,35,463.627,35,449.598V58.402C35,44.373,46.373,33,60.402,33H452 M451.598,18H60.402C38.125,18,20,36.125,20,58.402
			v391.195C20,471.876,38.125,490,60.402,490h391.195C473.876,490,492,471.876,492,449.598V58.402C492,36.125,473.876,18,451.598,18
			L451.598,18z"/>
	</g>
	<g id="data">
		<g>
			<g>
				<path fill-rule="evenodd" clip-rule="evenodd" fill="#FFFFFF" d="M364.367,181.168h-88.992v29.984h88.992V181.168z
					 M395.428,181.168v29.984h60.89v-29.984H395.428z M274.896,271.11h179.852v-15.985H274.896V271.11z M274.91,287.091v15.979
					h61.824v-15.979H274.91z M362.838,287.091v15.979h91.798v-15.979H362.838z M274.896,335.036h179.852v-15.98H274.896V335.036z
					 M274.91,367h61.824v-15.979H274.91V367z M362.838,425.92h91.798v-14.938h-91.798V425.92z M66.065,425.92h179.854v-14.938
					H66.065V425.92z"/>
			</g>
		</g>
	</g>
	<g id="holes">
		<circle fill-rule="evenodd" clip-rule="evenodd" fill="#FFFFFF" cx="145" cy="86" r="29"/>
		<circle fill-rule="evenodd" clip-rule="evenodd" fill="#FFFFFF" cx="374" cy="86" r="29"/>
	</g>
	<g id="user_1_">
		<g>
			<path fill-rule="evenodd" clip-rule="evenodd" fill="#FFFFFF" d="M153.924,249.126c-46.681,0-85.209,34.901-90.914,80.035
				C82.69,359.173,116.624,379,155.193,379c37.171,0,70.039-18.412,89.989-46.611C240.949,285.703,201.711,249.126,153.924,249.126z
				"/>
		</g>
		<circle fill-rule="evenodd" clip-rule="evenodd" fill="#FFFFFF" cx="153.744" cy="218.82" r="49.124"/>
		
			<path id="smile_1_" fill-rule="evenodd" clip-rule="evenodd" fill="#FFFFFF" stroke="#F15A24" stroke-width="7" stroke-linecap="round" stroke-miterlimit="10" d="
			M130.062,232.374c0,0,20.166,14.208,48.583,0"/>
	</g>
</g>
<g id="guides">
</g>
</svg>
