<?xml version="1.0" encoding="utf-8"?>
<!-- Generator: Adobe Illustrator 16.0.0, SVG Export Plug-In . SVG Version: 6.00 Build 0)  -->
<!DOCTYPE svg PUBLIC "-//W3C//DTD SVG 1.1//EN" "http://www.w3.org/Graphics/SVG/1.1/DTD/svg11.dtd">
<svg version="1.1" id="reply" xmlns="http://www.w3.org/2000/svg" xmlns:xlink="http://www.w3.org/1999/xlink" x="0px" y="0px"
	 width="512px" height="512px" viewBox="0 0 512 512" enable-background="new 0 0 512 512" xml:space="preserve">
<g>
	<path fill="#DD4814" d="M492.898,396.813c-2.259,0-4.454-1.022-5.905-2.875c-34.672-44.242-71.216-76.542-108.617-96
		c-27.995-14.564-56.449-21.949-84.573-21.949c-22.459,0-39.368,4.756-48.393,7.499l8.946,55.468
		c0.453,2.81-0.723,5.634-3.037,7.291c-1.298,0.931-2.83,1.403-4.368,1.403c-1.203,0-2.409-0.289-3.513-0.874
		c-0.352-0.184-38.44-19.525-125.173-19.525c-30.365,0-63.393,2.362-98.166,7.022c-0.333,0.045-0.666,0.066-0.997,0.066
		c-2.02,0-3.971-0.816-5.394-2.289c-1.656-1.714-2.398-4.113-2-6.464c5.09-30.054,17.303-59.814,36.299-88.454
		c15.079-22.734,34.447-44.819,57.566-65.642c39.25-35.352,75.324-54.627,76.84-55.43c1.095-0.58,2.301-0.873,3.511-0.873
		c0.953,0,1.907,0.182,2.812,0.547c2.052,0.83,3.633,2.524,4.319,4.629l13.481,41.369c20.578-4.08,41.493-6.145,62.271-6.145
		c42.201,0,102.957,8.702,152.743,50.157c48.489,40.375,75.014,102.018,78.837,183.215c0.154,3.26-1.818,6.245-4.878,7.383
		C494.656,396.66,493.772,396.813,492.898,396.813z"/>
	<path fill="#FFFFFF" d="M185.925,122.688l15.565,47.763c21.177-4.664,44.048-7.363,67.317-7.363
		c103.857,0,215.965,53.715,224.089,226.225c-78.609-100.31-151.185-120.819-199.094-120.823
		c-30.751-0.002-51.334,8.444-56.851,9.661l10,62c0,0-38.473-20.399-128.686-20.399c-27.956,0-60.874,1.958-99.163,7.089
		C40.648,199.639,185.925,122.688,185.925,122.688 M185.925,107.688c-2.42,0-4.833,0.585-7.021,1.745
		c-1.55,0.821-38.417,20.52-78.349,56.485c-23.587,21.245-43.369,43.81-58.796,67.069c-19.58,29.519-32.177,60.253-37.444,91.348
		c-0.796,4.7,0.689,9.498,4.001,12.927c2.845,2.945,6.748,4.578,10.787,4.578c0.662,0,1.328-0.044,1.993-0.133
		c34.445-4.616,67.138-6.956,97.17-6.956c45.11,0,76.352,5.313,94.616,9.771c18.257,4.456,26.963,8.838,27.043,8.88
		c2.206,1.17,4.621,1.748,7.025,1.748c3.077,0,6.139-0.945,8.736-2.806c4.627-3.314,6.98-8.963,6.074-14.583l-7.889-48.908
		c9.261-2.499,22.962-5.365,39.93-5.364c26.909,0.002,54.199,7.103,81.112,21.104c36.446,18.961,72.169,50.578,106.176,93.972
		c2.903,3.705,7.293,5.749,11.811,5.749c1.748,0,3.515-0.306,5.223-0.94c6.118-2.274,10.064-8.245,9.757-14.766
		c-2.026-43.021-10.49-81.245-25.157-113.611c-13.558-29.918-32.523-55.157-56.372-75.015
		c-51.511-42.891-114.104-51.894-157.543-51.894c-19.066,0-38.242,1.699-57.18,5.058l-11.441-35.106
		c-1.372-4.209-4.533-7.598-8.638-9.258C189.741,108.051,187.831,107.688,185.925,107.688L185.925,107.688z"/>
</g>
</svg>
