<?xml version="1.0" encoding="utf-8"?>
<!-- Generator: Adobe Illustrator 16.0.0, SVG Export Plug-In . SVG Version: 6.00 Build 0)  -->
<!DOCTYPE svg PUBLIC "-//W3C//DTD SVG 1.1//EN" "http://www.w3.org/Graphics/SVG/1.1/DTD/svg11.dtd">
<svg version="1.1" xmlns="http://www.w3.org/2000/svg" xmlns:xlink="http://www.w3.org/1999/xlink" x="0px" y="0px" width="512px"
	 height="512px" viewBox="0 0 512 512" enable-background="new 0 0 512 512" xml:space="preserve">
<g id="guides">
</g>
<g id="retweet">
	<g>
		<path fill="#FFFFFF" d="M177.21,270.315l-7.749,7.609l-19.686-20.175h-0.908v18.43h-10.82v-49.564h30.297l7.749,7.679v15.777
			l-7.749,7.679h-2.513l-2.443-1.187l-0.14,0.209l2.443,1.745L177.21,270.315z M148.867,236.738v10.89h13.892l2.513-2.583v-5.725
			l-2.513-2.583H148.867z"/>
		<path fill="#FFFFFF" d="M203.039,276.18h-10.82v-39.442h-13.613v-10.123h38.046v10.123h-13.613V276.18z"/>
	</g>
	<g>
		<path fill-rule="evenodd" clip-rule="evenodd" fill="#DD4814" d="M472.501,352.734c-1.687,0-3.358-0.568-4.721-1.671l-80-64.77
			c-1.759-1.424-2.78-3.566-2.78-5.829V178H184v70.083c0,2.879-1.647,5.503-4.24,6.755c-1.036,0.5-2.15,0.745-3.259,0.745
			c-1.664,0-3.315-0.553-4.667-1.629L33.635,144.11c-1.791-1.423-2.833-3.584-2.833-5.871c0-2.287,1.043-4.449,2.833-5.872
			L171.833,22.535c1.353-1.075,3.004-1.628,4.667-1.628c1.108,0,2.222,0.245,3.259,0.746c2.593,1.251,4.24,3.875,4.24,6.754V98
			h288.5c4.143,0,7.5,3.358,7.5,7.5v239.734c0,2.891-1.661,5.524-4.271,6.77C474.701,352.494,473.598,352.734,472.501,352.734z"/>
		<path fill="#FFFFFF" d="M176,28v78h296v239.234l-80-64.77V171H176v77.083L37.802,138.239L176,28.406 M176.502,13.406
			c-3.328,0-6.629,1.106-9.335,3.257L28.969,126.496c-3.581,2.846-5.667,7.169-5.667,11.743c0,4.574,2.086,8.897,5.667,11.743
			l138.198,109.844c2.706,2.151,6.007,3.258,9.335,3.258c2.216,0,4.194-0.49,6.267-1.49c5.186-2.503,8.231-7.752,8.231-13.51V186
			h186v94.465c0,4.526,2.294,8.811,5.812,11.658l80.125,64.77c2.723,2.204,6.13,3.342,9.503,3.342c2.194,0,4.182-0.48,6.237-1.462
			c5.219-2.489,8.323-7.756,8.323-13.538V105.5c0-8.284-6.216-14.5-14.5-14.5H191V28.406c0-5.757-3.045-11.007-8.23-13.509
			C180.697,13.897,178.718,13.406,176.502,13.406L176.502,13.406z"/>
	</g>
	<g>
		<path fill-rule="evenodd" clip-rule="evenodd" fill="#DD4814" d="M332.499,491c-1.108,0-2.223-0.245-3.259-0.745
			c-2.593-1.252-4.24-3.876-4.24-6.755V414H36.5c-4.142,0-7.5-3.357-7.5-7.5V166.671c0-2.891,1.662-5.524,4.271-6.769
			c1.028-0.491,2.131-0.731,3.228-0.731c1.687,0,3.358,0.568,4.72,1.671l80,64.77c1.759,1.424,2.781,3.566,2.781,5.829V334h201
			v-70.177c0-2.879,1.647-5.504,4.24-6.755c1.036-0.5,2.15-0.745,3.259-0.745c1.664,0,3.314,0.553,4.668,1.629l138.198,109.845
			c1.79,1.423,2.833,3.585,2.833,5.871c0,2.287-1.043,4.449-2.834,5.871L337.166,489.371C335.813,490.446,334.163,491,332.499,491z"
			/>
		<path fill="#FFFFFF" d="M36,166.671l80,64.77V342h216v-78.177l138.198,109.845L332,483.5V407H36V167 M36.498,151.671
			c-2.194,0-4.649,0.48-6.706,1.461C24.573,155.623,21,160.89,21,166.671V406.5c0,8.284,7.216,15.5,15.5,15.5H317v61.5
			c0,5.758,3.545,11.007,8.73,13.509c2.072,1.001,4.426,1.491,6.643,1.491c3.328,0,6.691-1.106,9.397-3.257L480,385.411
			c3.58-2.846,5.683-7.169,5.683-11.743c0-4.573-2.078-8.896-5.659-11.742L341.829,252.081c-2.705-2.15-6.005-3.257-9.333-3.257
			c-2.217,0-4.693,0.491-6.767,1.491c-5.185,2.502-8.729,7.751-8.729,13.509V327H131v-95.559c0-4.526-1.793-8.81-5.312-11.658
			l-79.875-64.77C43.091,152.809,39.871,151.671,36.498,151.671L36.498,151.671z"/>
	</g>
</g>
</svg>
