<?xml version="1.0" encoding="utf-8"?>
<!-- Generator: Adobe Illustrator 16.0.0, SVG Export Plug-In . SVG Version: 6.00 Build 0)  -->
<!DOCTYPE svg PUBLIC "-//W3C//DTD SVG 1.1//EN" "http://www.w3.org/Graphics/SVG/1.1/DTD/svg11.dtd">
<svg version="1.1" xmlns="http://www.w3.org/2000/svg" xmlns:xlink="http://www.w3.org/1999/xlink" x="0px" y="0px" width="512px"
	 height="512px" viewBox="0 0 512 512" enable-background="new 0 0 512 512" xml:space="preserve">
<g id="guides">
</g>
<g id="search">
	<g>
		<path fill-rule="evenodd" clip-rule="evenodd" fill="#DD4814" d="M421.622,483.767c-14.435,0-28.008-5.607-38.233-15.793
			l-54.397-51.246c-27.277,12.782-56.516,19.259-86.99,19.259c-54.653,0-105.899-21.053-144.3-59.279
			c-38.554-38.38-59.787-89.808-59.787-144.81c0-26.7,5.4-52.91,16.05-77.904c10.313-24.202,25.014-46.069,43.694-64.992
			c38.958-39.465,90.22-61.199,144.343-61.199c54.131,0,105.396,21.734,144.352,61.199c18.679,18.923,33.379,40.79,43.69,64.993
			c10.647,24.993,16.047,51.203,16.047,77.903c0,41.071-11.872,80.306-34.4,113.903l48.09,45.302
			c0.055,0.051,0.107,0.103,0.16,0.155c21.127,21.125,21.127,55.504,0.001,76.636C449.703,478.129,436.095,483.767,421.622,483.767z
			 M235.998,116.01C170.382,116.01,117,169.063,117,234.276c0,65.22,53.382,118.271,118.998,118.271
			c65.618,0,119.002-53.051,119.002-118.259C355,169.063,301.616,116.01,235.998,116.01z"/>
		<path fill="#FFFFFF" d="M242.001,35.302c108.586,0,196.589,91.716,196.589,196.595c0,43.182-13.642,82.76-36.744,114.934
			l52.791,49.729c18.23,18.229,18.23,47.794,0,66.029c-9.119,9.117-21.067,13.677-33.016,13.677
			c-11.947,0-23.895-4.56-33.011-13.677l-58.237-54.863c-26.572,13.277-56.578,20.76-88.373,20.76
			c-108.574,0-196.586-86.723-196.586-196.589C45.415,127.018,133.436,35.302,242.001,35.302 M235.998,360.047
			c69.459,0,126.502-56.313,126.502-125.759v-0.006v-0.006c0-69.44-57.035-125.766-126.502-125.766
			c-69.458,0-126.498,56.326-126.498,125.766v0.006v0.006C109.5,303.733,166.54,360.047,235.998,360.047 M242.001,20.302
			c-28.501,0-56.259,5.792-82.504,17.216c-25.079,10.916-47.68,26.465-67.176,46.214c-19.346,19.598-34.572,42.248-45.256,67.321
			c-11.048,25.928-16.65,53.128-16.65,80.844c0,57.012,22.017,110.328,61.995,150.125c19.403,19.314,42.038,34.466,67.277,45.033
			c26.041,10.902,53.736,16.431,82.314,16.431c29.856,0,58.571-6,85.509-17.85l50.664,47.729c11.632,11.545,27.052,17.9,43.447,17.9
			c16.476,0,31.968-6.417,43.621-18.069c24.052-24.059,24.052-63.194,0.001-87.243c-0.105-0.105-0.213-0.21-0.321-0.312
			l-43.534-41.011c21.108-33.622,32.202-72.324,32.202-112.735c0-27.716-5.601-54.916-16.647-80.843
			c-10.683-25.074-25.908-47.724-45.252-67.321c-19.495-19.75-42.097-35.299-67.177-46.215
			C298.269,26.094,270.507,20.302,242.001,20.302L242.001,20.302z M235.998,345.047c-29.653,0-57.614-11.537-78.732-32.486
			C136.137,291.6,124.5,263.802,124.5,234.288c0-29.525,11.637-57.323,32.767-78.287c21.119-20.953,49.079-32.492,78.731-32.492
			c29.655,0,57.618,11.539,78.736,32.492c21.129,20.962,32.766,48.761,32.766,78.274c0,29.526-11.637,57.324-32.768,78.285
			C293.613,333.51,265.652,345.047,235.998,345.047L235.998,345.047z"/>
	</g>
</g>
</svg>
