<?xml version="1.0" encoding="utf-8"?>
<!-- Generator: Adobe Illustrator 16.0.0, SVG Export Plug-In . SVG Version: 6.00 Build 0)  -->
<!DOCTYPE svg PUBLIC "-//W3C//DTD SVG 1.1//EN" "http://www.w3.org/Graphics/SVG/1.1/DTD/svg11.dtd">
<svg version="1.1" id="timeline" xmlns="http://www.w3.org/2000/svg" xmlns:xlink="http://www.w3.org/1999/xlink" x="0px" y="0px"
	 width="512px" height="512px" viewBox="0 0 512 512" enable-background="new 0 0 512 512" xml:space="preserve">
<g>
	<g>
		<g>
			<path fill="#DD4814" d="M76.178,487.58c-2.062,0-4.1-0.848-5.566-2.47c-2.45-2.709-2.591-6.79-0.336-9.662
				c0.216-0.276,16.464-21.248,24.833-49.31c10.843-36.354,3.938-67.229-20.522-91.767c-3.299-2.985-6.487-5.831-9.556-8.571
				c-32.557-29.064-54.064-48.266-54.064-97.329c0-54.234,25.716-105.128,72.412-143.307
				c46.255-37.819,107.663-58.647,172.911-58.647c65.251,0,126.659,20.828,172.915,58.647c46.694,38.179,72.41,89.073,72.41,143.307
				c0,53.508-25.276,98.074-73.096,128.883c-43.267,27.874-104.432,43.226-172.229,43.226c-33.63,0-138.516,61.957-176.092,85.83
				C78.958,487.198,77.562,487.58,76.178,487.58z"/>
			<path fill="#FFFFFF" d="M256.289,34.018c131.346,0,237.825,87.058,237.825,194.454S387.635,393.08,256.289,393.08
				c-43.176,0-180.114,87-180.114,87s68.125-86.621,3.585-151.142c-38.094-34.479-61.294-50.336-61.294-100.467
				C18.466,121.075,124.949,34.018,256.289,34.018 M256.289,19.018c-33.777,0-66.571,5.418-97.471,16.104
				c-29.995,10.373-56.974,25.256-80.188,44.236c-23.436,19.162-41.872,41.545-54.797,66.53
				c-13.515,26.125-20.367,53.91-20.367,82.583c0,52.422,23.729,73.605,56.569,102.924c3.025,2.701,6.15,5.491,9.375,8.407
				c22.172,22.331,28.438,50.523,18.627,83.803c-7.907,26.823-23.515,47.024-23.671,47.225c-4.519,5.746-4.229,13.9,0.674,19.321
				c2.93,3.241,7.005,4.933,11.126,4.933c2.774,0,5.569-0.766,8.051-2.343c0.34-0.216,34.396-21.81,73.169-43.082
				c68.401-37.527,91.951-41.579,98.902-41.579c34.172,0,66.53-3.72,96.175-11.057c30.523-7.554,57.478-18.779,80.116-33.364
				c24.055-15.497,42.82-34.525,55.774-56.557c13.775-23.426,20.76-49.881,20.76-78.631c0-28.674-6.853-56.458-20.367-82.583
				c-12.924-24.984-31.36-47.368-54.796-66.53c-23.214-18.98-50.192-33.863-80.188-44.236
				C322.862,24.436,290.067,19.018,256.289,19.018L256.289,19.018z"/>
		</g>
		<rect x="241" y="102" fill="#FFFFFF" width="31" height="87"/>
		
			<rect x="192" y="207" transform="matrix(-0.7661 -0.6428 0.6428 -0.7661 184.6464 608.2021)" fill="#FFFFFF" width="22" height="127"/>
		<circle fill="#FFFFFF" cx="255.5" cy="207.5" r="10.5"/>
	</g>
</g>
</svg>
